<svg width="337" height="47" viewBox="0 0 337 47" fill="none" xmlns="http://www.w3.org/2000/svg">
<path d="M18.2988 34.4688V29.7051L8.66602 26.4883L7.4707 26.0664L8.66602 25.627L18.2988 22.3574V17.6113L2.74219 24.0625V28.0176L18.2988 34.4688Z" fill="#86EBED"/>
<path d="M290.42 39.1973L300 11.4062H295.447L285.867 39.1973H290.42ZM306.451 34.4863L322.271 28.0352V24.0449L306.451 17.6113V22.3398L316.541 25.6621L317.596 26.0137L316.523 26.3652L306.451 29.7402V34.4863Z" fill="#86EBED"/>
<path d="M24.1973 37H31.0703C32.207 37 33.2734 36.8594 34.2695 36.5781C35.2773 36.2969 36.1973 35.8926 37.0293 35.3652C37.7441 34.9199 38.4004 34.3691 38.998 33.7129C39.5957 33.0449 40.1172 32.3184 40.5625 31.5332C41.0312 30.6543 41.3945 29.6875 41.6523 28.6328C41.9102 27.5781 42.0391 26.459 42.0391 25.2754V23.166C42.0391 21.9355 41.8984 20.7754 41.6172 19.6855C41.3477 18.5957 40.9609 17.5996 40.457 16.6973C40.0234 15.959 39.5137 15.2793 38.9277 14.6582C38.3535 14.0254 37.6973 13.4922 36.959 13.0586C36.1152 12.5312 35.1777 12.127 34.1465 11.8457C33.1152 11.5527 32.0078 11.4062 30.8242 11.4062H24.1973V37ZM29.1719 15.4141H30.8242C31.4219 15.4141 31.9727 15.4844 32.4766 15.625C32.9922 15.7539 33.4609 15.9414 33.8828 16.1875C34.4336 16.5156 34.9141 16.9375 35.3242 17.4531C35.7461 17.9688 36.0859 18.5547 36.3438 19.2109C36.5547 19.7617 36.7129 20.3711 36.8184 21.0391C36.9355 21.6953 36.9941 22.3926 36.9941 23.1309V25.2754C36.9941 26.0605 36.9355 26.793 36.8184 27.4727C36.7129 28.1406 36.5547 28.75 36.3438 29.3008C36.0859 29.9336 35.7754 30.4902 35.4121 30.9707C35.0605 31.4395 34.6621 31.8262 34.2168 32.1309C33.7832 32.4238 33.3027 32.6465 32.7754 32.7988C32.248 32.9512 31.6797 33.0273 31.0703 33.0273H29.1719V15.4141ZM57.9824 37H62.9395V36.7012C62.6934 36.2207 62.5059 35.6465 62.377 34.9785C62.248 34.3105 62.1836 33.4668 62.1836 32.4473V24.291C62.1836 23.1895 61.9785 22.2227 61.5684 21.3906C61.1582 20.5469 60.5898 19.8496 59.8633 19.2988C59.1367 18.748 58.2754 18.332 57.2793 18.0508C56.2949 17.7695 55.2285 17.6289 54.0801 17.6289C52.8027 17.6289 51.666 17.793 50.6699 18.1211C49.6855 18.4375 48.8535 18.8711 48.1738 19.4219C47.4824 19.9727 46.9551 20.6113 46.5918 21.3379C46.2402 22.0645 46.0645 22.832 46.0645 23.6406H50.9512C50.9512 23.3008 50.998 22.9902 51.0918 22.709C51.1973 22.4277 51.3555 22.1875 51.5664 21.9883C51.8008 21.7656 52.1055 21.5957 52.4805 21.4785C52.8555 21.3496 53.3008 21.2852 53.8164 21.2852C54.4023 21.2852 54.9121 21.3613 55.3457 21.5137C55.791 21.6543 56.1602 21.8594 56.4531 22.1289C56.7344 22.3867 56.9453 22.6973 57.0859 23.0605C57.2266 23.4121 57.2969 23.8105 57.2969 24.2559V25.3809H54.5723C53.166 25.3809 51.918 25.5098 50.8281 25.7676C49.75 26.0137 48.8418 26.377 48.1035 26.8574C47.2832 27.3848 46.668 28.0586 46.2578 28.8789C45.8477 29.6875 45.6426 30.6191 45.6426 31.6738C45.6426 32.4941 45.8066 33.2559 46.1348 33.959C46.4629 34.6504 46.9199 35.248 47.5059 35.752C48.0918 36.2559 48.7891 36.6484 49.5977 36.9297C50.418 37.2109 51.3145 37.3516 52.2871 37.3516C52.8848 37.3516 53.4414 37.293 53.957 37.1758C54.4727 37.0703 54.9473 36.918 55.3809 36.7188C55.8027 36.5312 56.1895 36.3086 56.541 36.0508C56.8926 35.793 57.2031 35.5176 57.4727 35.2246C57.5312 35.5645 57.6016 35.8867 57.6836 36.1914C57.7656 36.4961 57.8652 36.7656 57.9824 37ZM53.3242 33.5723C52.8672 33.5723 52.4629 33.5195 52.1113 33.4141C51.7715 33.2969 51.4844 33.1445 51.25 32.957C51.0156 32.7578 50.834 32.5176 50.7051 32.2363C50.5879 31.9434 50.5293 31.627 50.5293 31.2871C50.5293 30.8535 50.6113 30.4551 50.7754 30.0918C50.9395 29.7168 51.1914 29.3945 51.5312 29.125C51.8711 28.8672 52.3105 28.668 52.8496 28.5273C53.3887 28.375 54.0391 28.2988 54.8008 28.2988H57.2969V31.5684C57.1562 31.8145 56.9629 32.0605 56.7168 32.3066C56.4707 32.541 56.1777 32.752 55.8379 32.9395C55.498 33.127 55.1172 33.2793 54.6953 33.3965C54.2734 33.5137 53.8164 33.5723 53.3242 33.5723ZM73.7676 37H78.3555L85.5801 17.9805H80.4824L76.3164 31.3926L76.0527 32.7285L75.7891 31.3926L71.6055 17.9805H66.5078L73.7676 37ZM90.6426 17.9805V21.9707H96.0566V33.0273H90.6426V37H106.146V33.0273H100.996V17.9805H90.6426ZM95.7051 13.1113C95.7051 13.4863 95.7695 13.8379 95.8984 14.166C96.0391 14.4824 96.2324 14.752 96.4785 14.9746C96.7246 15.209 97.0176 15.3906 97.3574 15.5195C97.709 15.6484 98.0957 15.7129 98.5176 15.7129C99.3848 15.7129 100.07 15.4727 100.574 14.9922C101.09 14.5 101.348 13.873 101.348 13.1113C101.348 12.3496 101.09 11.7285 100.574 11.248C100.07 10.7559 99.3848 10.5098 98.5176 10.5098C98.0957 10.5098 97.709 10.5742 97.3574 10.7031C97.0176 10.832 96.7246 11.0078 96.4785 11.2305C96.2324 11.4648 96.0391 11.7461 95.8984 12.0742C95.7695 12.3906 95.7051 12.7363 95.7051 13.1113ZM141.092 27.4375L145.908 37H151.199V36.7715L145.697 26.207C146.4 25.8906 147.033 25.5156 147.596 25.082C148.17 24.6484 148.662 24.1387 149.072 23.5527C149.471 22.9785 149.775 22.3281 149.986 21.6016C150.209 20.8633 150.32 20.0371 150.32 19.123C150.32 17.8574 150.098 16.7441 149.652 15.7832C149.219 14.8223 148.598 14.0195 147.789 13.375C146.969 12.7305 145.984 12.2441 144.836 11.916C143.688 11.5762 142.404 11.4062 140.986 11.4062H132.408V37H137.348V27.4375H141.092ZM137.348 23.4297V15.4141H140.986C141.666 15.4141 142.27 15.4961 142.797 15.6602C143.324 15.8242 143.77 16.0586 144.133 16.3633C144.543 16.7031 144.848 17.1367 145.047 17.6641C145.258 18.1797 145.363 18.7773 145.363 19.457C145.363 20.0195 145.281 20.5293 145.117 20.9863C144.965 21.4434 144.736 21.8359 144.432 22.1641C144.068 22.5742 143.594 22.8906 143.008 23.1133C142.434 23.3242 141.766 23.4297 141.004 23.4297H137.348ZM163.434 37.3516C165.273 37.3516 166.867 36.9941 168.215 36.2793C169.562 35.5645 170.547 34.7676 171.168 33.8887L168.725 31.252C168.162 31.9785 167.43 32.5234 166.527 32.8867C165.625 33.25 164.693 33.4316 163.732 33.4316C163.053 33.4316 162.426 33.3262 161.852 33.1152C161.277 32.9043 160.768 32.6055 160.322 32.2188C159.889 31.8438 159.543 31.4277 159.285 30.9707C159.027 30.502 158.816 29.8867 158.652 29.125V29.0723H171.555V26.998C171.555 25.6035 171.361 24.332 170.975 23.1836C170.588 22.0234 170.025 21.0332 169.287 20.2129C168.537 19.3926 167.623 18.7598 166.545 18.3145C165.479 17.8574 164.26 17.6289 162.889 17.6289C161.564 17.6289 160.34 17.8691 159.215 18.3496C158.09 18.8301 157.117 19.5039 156.297 20.3711C155.477 21.2383 154.838 22.2754 154.381 23.4824C153.924 24.6777 153.695 26.002 153.695 27.4551V28.1582C153.695 29.4355 153.924 30.6367 154.381 31.7617C154.85 32.875 155.512 33.8418 156.367 34.6621C157.223 35.4941 158.248 36.1504 159.443 36.6309C160.639 37.1113 161.969 37.3516 163.434 37.3516ZM162.854 21.584C163.475 21.584 164.02 21.6836 164.488 21.8828C164.969 22.0703 165.373 22.3281 165.701 22.6562C166.029 22.9961 166.287 23.3945 166.475 23.8516C166.662 24.3086 166.756 24.7949 166.756 25.3105V25.6973H158.74C158.857 25.0762 159.033 24.5137 159.268 24.0098C159.502 23.5059 159.795 23.0723 160.146 22.709C160.486 22.3457 160.885 22.0703 161.342 21.8828C161.799 21.6836 162.303 21.584 162.854 21.584ZM182.102 33.0801L192.859 20.916V17.9805H175.668V21.9531H186.074L175.422 33.9766V37H193.299V33.0801H182.102ZM206.676 37.3516C208.516 37.3516 210.109 36.9941 211.457 36.2793C212.805 35.5645 213.789 34.7676 214.41 33.8887L211.967 31.252C211.404 31.9785 210.672 32.5234 209.77 32.8867C208.867 33.25 207.936 33.4316 206.975 33.4316C206.295 33.4316 205.668 33.3262 205.094 33.1152C204.52 32.9043 204.01 32.6055 203.564 32.2188C203.131 31.8438 202.785 31.4277 202.527 30.9707C202.27 30.502 202.059 29.8867 201.895 29.125V29.0723H214.797V26.998C214.797 25.6035 214.604 24.332 214.217 23.1836C213.83 22.0234 213.268 21.0332 212.529 20.2129C211.779 19.3926 210.865 18.7598 209.787 18.3145C208.721 17.8574 207.502 17.6289 206.131 17.6289C204.807 17.6289 203.582 17.8691 202.457 18.3496C201.332 18.8301 200.359 19.5039 199.539 20.3711C198.719 21.2383 198.08 22.2754 197.623 23.4824C197.166 24.6777 196.938 26.002 196.938 27.4551V28.1582C196.938 29.4355 197.166 30.6367 197.623 31.7617C198.092 32.875 198.754 33.8418 199.609 34.6621C200.465 35.4941 201.49 36.1504 202.686 36.6309C203.881 37.1113 205.211 37.3516 206.676 37.3516ZM206.096 21.584C206.717 21.584 207.262 21.6836 207.73 21.8828C208.211 22.0703 208.615 22.3281 208.943 22.6562C209.271 22.9961 209.529 23.3945 209.717 23.8516C209.904 24.3086 209.998 24.7949 209.998 25.3105V25.6973H201.982C202.1 25.0762 202.275 24.5137 202.51 24.0098C202.744 23.5059 203.037 23.0723 203.389 22.709C203.729 22.3457 204.127 22.0703 204.584 21.8828C205.041 21.6836 205.545 21.584 206.096 21.584ZM219.068 37H223.973V23.4824C224.137 23.2246 224.318 22.9902 224.518 22.7793C224.717 22.5684 224.939 22.3867 225.186 22.2344C225.49 22.0234 225.836 21.8652 226.223 21.7598C226.621 21.6543 227.055 21.6016 227.523 21.6016C228.086 21.6016 228.59 21.6602 229.035 21.7773C229.48 21.8828 229.861 22.0762 230.178 22.3574C230.494 22.6387 230.734 23.0254 230.898 23.5176C231.074 23.998 231.162 24.6133 231.162 25.3633V37H236.049V25.293C236.049 23.9102 235.885 22.7383 235.557 21.7773C235.24 20.8047 234.795 20.0078 234.221 19.3867C233.635 18.7773 232.943 18.332 232.146 18.0508C231.35 17.7695 230.471 17.6289 229.51 17.6289C228.76 17.6289 228.051 17.7344 227.383 17.9453C226.715 18.1562 226.1 18.4609 225.537 18.8594C225.209 19.0938 224.898 19.3574 224.605 19.6504C224.312 19.9434 224.043 20.2656 223.797 20.6172L223.498 17.9805H219.068V37ZM240.18 27.3496V27.7188C240.18 29.1016 240.35 30.3848 240.689 31.5684C241.029 32.7402 241.521 33.7539 242.166 34.6094C242.799 35.4648 243.572 36.1387 244.486 36.6309C245.412 37.1113 246.455 37.3516 247.615 37.3516C248.682 37.3516 249.619 37.1465 250.428 36.7363C251.236 36.3262 251.939 35.752 252.537 35.0137L252.783 37H257.195V10H252.291V19.6855C251.705 19.0293 251.031 18.5254 250.27 18.1738C249.52 17.8105 248.646 17.6289 247.65 17.6289C246.467 17.6289 245.412 17.8633 244.486 18.332C243.572 18.8008 242.793 19.4629 242.148 20.3184C241.504 21.1738 241.012 22.1992 240.672 23.3945C240.344 24.5898 240.18 25.9082 240.18 27.3496ZM245.066 27.7188V27.3496C245.066 26.5527 245.137 25.8086 245.277 25.1172C245.418 24.4141 245.641 23.7988 245.945 23.2715C246.25 22.7559 246.643 22.3516 247.123 22.0586C247.615 21.7539 248.207 21.6016 248.898 21.6016C249.73 21.6016 250.422 21.7832 250.973 22.1465C251.523 22.498 251.963 22.9961 252.291 23.6406V31.3398C251.963 31.9727 251.518 32.4707 250.955 32.834C250.404 33.1973 249.707 33.3789 248.863 33.3789C248.172 33.3789 247.586 33.2324 247.105 32.9395C246.625 32.6465 246.232 32.2422 245.928 31.7266C245.623 31.2227 245.4 30.6309 245.26 29.9512C245.131 29.2598 245.066 28.5156 245.066 27.7188ZM271.539 37.3516C273.379 37.3516 274.973 36.9941 276.32 36.2793C277.668 35.5645 278.652 34.7676 279.273 33.8887L276.83 31.252C276.268 31.9785 275.535 32.5234 274.633 32.8867C273.73 33.25 272.799 33.4316 271.838 33.4316C271.158 33.4316 270.531 33.3262 269.957 33.1152C269.383 32.9043 268.873 32.6055 268.428 32.2188C267.994 31.8438 267.648 31.4277 267.391 30.9707C267.133 30.502 266.922 29.8867 266.758 29.125V29.0723H279.66V26.998C279.66 25.6035 279.467 24.332 279.08 23.1836C278.693 22.0234 278.131 21.0332 277.393 20.2129C276.643 19.3926 275.729 18.7598 274.65 18.3145C273.584 17.8574 272.365 17.6289 270.994 17.6289C269.67 17.6289 268.445 17.8691 267.32 18.3496C266.195 18.8301 265.223 19.5039 264.402 20.3711C263.582 21.2383 262.943 22.2754 262.486 23.4824C262.029 24.6777 261.801 26.002 261.801 27.4551V28.1582C261.801 29.4355 262.029 30.6367 262.486 31.7617C262.955 32.875 263.617 33.8418 264.473 34.6621C265.328 35.4941 266.354 36.1504 267.549 36.6309C268.744 37.1113 270.074 37.3516 271.539 37.3516ZM270.959 21.584C271.58 21.584 272.125 21.6836 272.594 21.8828C273.074 22.0703 273.479 22.3281 273.807 22.6562C274.135 22.9961 274.393 23.3945 274.58 23.8516C274.768 24.3086 274.861 24.7949 274.861 25.3105V25.6973H266.846C266.963 25.0762 267.139 24.5137 267.373 24.0098C267.607 23.5059 267.9 23.0723 268.252 22.709C268.592 22.3457 268.99 22.0703 269.447 21.8828C269.904 21.6836 270.408 21.584 270.959 21.584Z" fill="white"/>
</svg>
